<mxfile host="Electron" modified="2024-04-12T14:38:50.816Z" agent="Mozilla/5.0 (Windows NT 10.0; Win64; x64) AppleWebKit/537.36 (KHTML, like Gecko) draw.io/21.5.0 Chrome/112.0.5615.204 Electron/24.5.1 Safari/537.36" etag="xGNmszoUqrQeZOcRVyYE" version="21.5.0" type="device">
  <diagram name="Page-1" id="4y2b6JN0eK641zLebEKb">
    <mxGraphModel dx="1311" dy="991" grid="1" gridSize="10" guides="1" tooltips="1" connect="1" arrows="1" fold="1" page="1" pageScale="1" pageWidth="850" pageHeight="1100" math="0" shadow="0">
      <root>
        <mxCell id="0" />
        <mxCell id="1" parent="0" />
        <mxCell id="J9PmI4q2A3fcAl0dy6nj-5" style="edgeStyle=orthogonalEdgeStyle;rounded=0;hachureGap=4;orthogonalLoop=1;jettySize=auto;html=1;exitX=1;exitY=0.5;exitDx=0;exitDy=0;fontFamily=Lucida Console;fontSize=16;endArrow=classic;endFill=1;" parent="1" source="J9PmI4q2A3fcAl0dy6nj-1" target="J9PmI4q2A3fcAl0dy6nj-2" edge="1">
          <mxGeometry relative="1" as="geometry" />
        </mxCell>
        <mxCell id="J9PmI4q2A3fcAl0dy6nj-1" value="" style="image;html=1;image=img/lib/clip_art/networking/Cloud_128x128.png;sketch=1;hachureGap=4;jiggle=2;curveFitting=1;fontFamily=Lucida Console;fontSize=20;" parent="1" vertex="1">
          <mxGeometry x="890" y="30" width="80" height="80" as="geometry" />
        </mxCell>
        <mxCell id="J9PmI4q2A3fcAl0dy6nj-6" style="edgeStyle=orthogonalEdgeStyle;rounded=0;hachureGap=4;orthogonalLoop=1;jettySize=auto;html=1;fontFamily=Lucida Console;fontSize=16;endArrow=classic;endFill=1;" parent="1" source="J9PmI4q2A3fcAl0dy6nj-2" edge="1">
          <mxGeometry relative="1" as="geometry">
            <mxPoint x="1200" y="70" as="targetPoint" />
          </mxGeometry>
        </mxCell>
        <mxCell id="J9PmI4q2A3fcAl0dy6nj-2" value="UDM PRO" style="sketch=0;pointerEvents=1;shadow=1;dashed=0;html=1;strokeColor=#d79b00;labelPosition=center;verticalLabelPosition=bottom;verticalAlign=top;outlineConnect=0;align=center;shape=mxgraph.office.concepts.firewall;fillColor=#ffe6cc;hachureGap=4;jiggle=2;curveFitting=1;fontFamily=Lucida Console;fontSize=20;" parent="1" vertex="1">
          <mxGeometry x="1060" y="48.5" width="47" height="43" as="geometry" />
        </mxCell>
        <mxCell id="J9PmI4q2A3fcAl0dy6nj-67" value="24PORT SWITCH" style="sketch=0;outlineConnect=0;strokeColor=#d79b00;fillColor=#ffe6cc;dashed=0;verticalLabelPosition=bottom;verticalAlign=top;align=center;html=1;fontSize=12;fontStyle=0;aspect=fixed;shape=mxgraph.aws4.resourceIcon;resIcon=mxgraph.aws4.stack;hachureGap=4;jiggle=2;curveFitting=1;fontFamily=Lucida Console;shadow=1;" parent="1" vertex="1">
          <mxGeometry x="1200" y="40" width="60" height="60" as="geometry" />
        </mxCell>
        <mxCell id="J9PmI4q2A3fcAl0dy6nj-84" value="" style="whiteSpace=wrap;html=1;hachureGap=4;fontFamily=Architects Daughter;fontSource=https%3A%2F%2Ffonts.googleapis.com%2Fcss%3Ffamily%3DArchitects%2BDaughter;fontSize=20;fillColor=#f5f5f5;strokeColor=#666666;fontColor=#333333;shadow=0;" parent="1" vertex="1">
          <mxGeometry x="890" y="190" width="1460" height="1510" as="geometry" />
        </mxCell>
        <mxCell id="J9PmI4q2A3fcAl0dy6nj-77" value="DMZ (10.70.0.0/24)" style="swimlane;whiteSpace=wrap;html=1;hachureGap=4;fontFamily=Lucida Console;fontSize=20;swimlaneLine=0;glass=1;fillColor=#ffe6cc;strokeColor=#d79b00;" parent="1" vertex="1">
          <mxGeometry x="1500" y="600" width="430" height="367" as="geometry">
            <mxRectangle x="1140" y="290" width="210" height="40" as="alternateBounds" />
          </mxGeometry>
        </mxCell>
        <mxCell id="J9PmI4q2A3fcAl0dy6nj-9" value="OPNSENSE&lt;br style=&quot;font-size: 12px;&quot;&gt;192.168.40.25&lt;br&gt;10.70.0.1&lt;br style=&quot;font-size: 12px;&quot;&gt;10.71.0.1&lt;br style=&quot;font-size: 12px;&quot;&gt;10.72.0.1&lt;br style=&quot;font-size: 12px;&quot;&gt;10.73.0.1&lt;br style=&quot;font-size: 12px;&quot;&gt;10.74.0.1&lt;br&gt;1 CPU&lt;br&gt;2GB RAM&lt;br&gt;32GB HDD&lt;br&gt;Opnsense 24.1.4" style="sketch=0;pointerEvents=1;shadow=1;dashed=0;html=1;strokeColor=#d79b00;labelPosition=center;verticalLabelPosition=bottom;verticalAlign=top;outlineConnect=0;align=center;shape=mxgraph.office.concepts.firewall;fillColor=#ffe6cc;hachureGap=4;jiggle=2;curveFitting=1;fontFamily=Lucida Console;fontSize=12;" parent="J9PmI4q2A3fcAl0dy6nj-77" vertex="1">
          <mxGeometry x="48" y="47" width="47" height="43" as="geometry" />
        </mxCell>
        <mxCell id="J9PmI4q2A3fcAl0dy6nj-8" value="NGINXPROXYMGR&lt;br style=&quot;font-size: 12px;&quot;&gt;10.70.0.10&lt;br&gt;1 CPU&lt;br&gt;1GB RAM&lt;br&gt;32GB HDD&lt;br&gt;Ubuntu 22.04" style="sketch=0;points=[[0,0,0],[0.25,0,0],[0.5,0,0],[0.75,0,0],[1,0,0],[0,1,0],[0.25,1,0],[0.5,1,0],[0.75,1,0],[1,1,0],[0,0.25,0],[0,0.5,0],[0,0.75,0],[1,0.25,0],[1,0.5,0],[1,0.75,0]];outlineConnect=0;gradientDirection=north;fillColor=#ffe6cc;strokeColor=#d79b00;dashed=0;verticalLabelPosition=bottom;verticalAlign=top;align=center;html=1;fontSize=12;fontStyle=0;aspect=fixed;shape=mxgraph.aws4.resourceIcon;resIcon=mxgraph.aws4.elastic_load_balancing;hachureGap=4;jiggle=2;curveFitting=1;fontFamily=Lucida Console;shadow=1;" parent="J9PmI4q2A3fcAl0dy6nj-77" vertex="1">
          <mxGeometry x="200" y="47" width="47" height="47" as="geometry" />
        </mxCell>
        <mxCell id="J9PmI4q2A3fcAl0dy6nj-14" value="VDI WEB&lt;br style=&quot;font-size: 12px;&quot;&gt;10.70.0.11&lt;br&gt;1 CPU&lt;br&gt;1GB RAM&lt;br&gt;32GB HDD&lt;br&gt;Ubuntu 22.04" style="sketch=0;points=[[0,0,0],[0.25,0,0],[0.5,0,0],[0.75,0,0],[1,0,0],[0,1,0],[0.25,1,0],[0.5,1,0],[0.75,1,0],[1,1,0],[0,0.25,0],[0,0.5,0],[0,0.75,0],[1,0.25,0],[1,0.5,0],[1,0.75,0]];outlineConnect=0;gradientDirection=north;fillColor=#ffe6cc;strokeColor=#d79b00;dashed=0;verticalLabelPosition=bottom;verticalAlign=top;align=center;html=1;fontSize=12;fontStyle=0;aspect=fixed;shape=mxgraph.aws4.resourceIcon;resIcon=mxgraph.aws4.workspaces;hachureGap=4;jiggle=2;curveFitting=1;fontFamily=Lucida Console;shadow=1;" parent="J9PmI4q2A3fcAl0dy6nj-77" vertex="1">
          <mxGeometry x="330" y="45" width="47" height="47" as="geometry" />
        </mxCell>
        <mxCell id="J9PmI4q2A3fcAl0dy6nj-76" value="CloudflareD&#xa;10.70.0.5&#xa;1 CPU&#xa;1GB RAM&#xa;32GB HDD&#xa;Ubuntu 22.04&#xa;" style="sketch=0;pointerEvents=1;shadow=1;dashed=0;strokeColor=#d79b00;fillColor=#ffe6cc;labelPosition=center;verticalLabelPosition=bottom;verticalAlign=top;align=center;outlineConnect=0;shape=mxgraph.veeam2.open_vpn;hachureGap=4;jiggle=2;curveFitting=1;fontFamily=Lucida Console;fontSize=12;" parent="J9PmI4q2A3fcAl0dy6nj-77" vertex="1">
          <mxGeometry x="200" y="217" width="47" height="47" as="geometry" />
        </mxCell>
        <mxCell id="J9PmI4q2A3fcAl0dy6nj-89" style="edgeStyle=orthogonalEdgeStyle;rounded=0;hachureGap=4;orthogonalLoop=1;jettySize=auto;html=1;exitX=0;exitY=0.5;exitDx=0;exitDy=0;entryX=0.75;entryY=0;entryDx=0;entryDy=0;fontFamily=Architects Daughter;fontSource=https%3A%2F%2Ffonts.googleapis.com%2Fcss%3Ffamily%3DArchitects%2BDaughter;fontSize=16;startArrow=classic;startFill=1;" parent="1" source="J9PmI4q2A3fcAl0dy6nj-78" target="J9PmI4q2A3fcAl0dy6nj-77" edge="1">
          <mxGeometry relative="1" as="geometry" />
        </mxCell>
        <mxCell id="J9PmI4q2A3fcAl0dy6nj-78" value="Admin Zone (10.71.0.0/24)" style="swimlane;whiteSpace=wrap;html=1;hachureGap=4;fontFamily=Lucida Console;fontSize=20;fillColor=#e1d5e7;strokeColor=#9673a6;glass=1;" parent="1" vertex="1">
          <mxGeometry x="1930" y="390" width="380" height="210" as="geometry" />
        </mxCell>
        <mxCell id="J9PmI4q2A3fcAl0dy6nj-24" value="REPO&lt;br style=&quot;font-size: 12px;&quot;&gt;10.71.0.12&lt;br&gt;1 CPU&lt;br&gt;2GB RAM&lt;br&gt;72GB HDD&lt;br&gt;Ubuntu 22.04" style="sketch=0;points=[[0,0,0],[0.25,0,0],[0.5,0,0],[0.75,0,0],[1,0,0],[0,1,0],[0.25,1,0],[0.5,1,0],[0.75,1,0],[1,1,0],[0,0.25,0],[0,0.5,0],[0,0.75,0],[1,0.25,0],[1,0.5,0],[1,0.75,0]];outlineConnect=0;gradientDirection=north;fillColor=#e1d5e7;strokeColor=#9673a6;dashed=0;verticalLabelPosition=bottom;verticalAlign=top;align=center;html=1;fontSize=12;fontStyle=0;aspect=fixed;shape=mxgraph.aws4.resourceIcon;resIcon=mxgraph.aws4.codecommit;hachureGap=4;jiggle=2;curveFitting=1;fontFamily=Lucida Console;shadow=1;" parent="J9PmI4q2A3fcAl0dy6nj-78" vertex="1">
          <mxGeometry x="290" y="41.360000000000014" width="47" height="47" as="geometry" />
        </mxCell>
        <mxCell id="J9PmI4q2A3fcAl0dy6nj-17" value="PROVISIONER&lt;br style=&quot;font-size: 12px;&quot;&gt;10.71.0.11&lt;br&gt;1 CPU&lt;br&gt;1GB RAM&lt;br&gt;72GB HDD&lt;br&gt;Ubuntu 22.04" style="sketch=0;points=[[0,0,0],[0.25,0,0],[0.5,0,0],[0.75,0,0],[1,0,0],[0,1,0],[0.25,1,0],[0.5,1,0],[0.75,1,0],[1,1,0],[0,0.25,0],[0,0.5,0],[0,0.75,0],[1,0.25,0],[1,0.5,0],[1,0.75,0]];outlineConnect=0;gradientDirection=north;fillColor=#e1d5e7;strokeColor=#9673a6;dashed=0;verticalLabelPosition=bottom;verticalAlign=top;align=center;html=1;fontSize=12;fontStyle=0;aspect=fixed;shape=mxgraph.aws4.resourceIcon;resIcon=mxgraph.aws4.ec2_image_builder;hachureGap=4;jiggle=2;curveFitting=1;fontFamily=Lucida Console;" parent="J9PmI4q2A3fcAl0dy6nj-78" vertex="1">
          <mxGeometry x="50" y="41.360000000000014" width="47" height="47" as="geometry" />
        </mxCell>
        <mxCell id="J9PmI4q2A3fcAl0dy6nj-91" value="PROVISIONER&lt;br style=&quot;font-size: 12px;&quot;&gt;10.71.0.11&lt;br&gt;1 CPU&lt;br&gt;1GB RAM&lt;br&gt;72GB HDD&lt;br&gt;Ubuntu 22.04" style="sketch=0;points=[[0,0,0],[0.25,0,0],[0.5,0,0],[0.75,0,0],[1,0,0],[0,1,0],[0.25,1,0],[0.5,1,0],[0.75,1,0],[1,1,0],[0,0.25,0],[0,0.5,0],[0,0.75,0],[1,0.25,0],[1,0.5,0],[1,0.75,0]];outlineConnect=0;gradientDirection=north;fillColor=#e1d5e7;strokeColor=#9673a6;dashed=0;verticalLabelPosition=bottom;verticalAlign=top;align=center;html=1;fontSize=12;fontStyle=0;aspect=fixed;shape=mxgraph.aws4.resourceIcon;resIcon=mxgraph.aws4.ec2_image_builder;hachureGap=4;jiggle=2;curveFitting=1;fontFamily=Lucida Console;shadow=1;" parent="J9PmI4q2A3fcAl0dy6nj-78" vertex="1">
          <mxGeometry x="50" y="41.360000000000014" width="47" height="47" as="geometry" />
        </mxCell>
        <mxCell id="J9PmI4q2A3fcAl0dy6nj-92" value="ADMIN CONSOLE&lt;br style=&quot;font-size: 12px;&quot;&gt;10.71.0.10&lt;br&gt;2 CPU&lt;br&gt;2GB RAM&lt;br&gt;72GB HDD&lt;br&gt;CrunchBang++" style="sketch=0;points=[[0.015,0.015,0],[0.985,0.015,0],[0.985,0.985,0],[0.015,0.985,0],[0.25,0,0],[0.5,0,0],[0.75,0,0],[1,0.25,0],[1,0.5,0],[1,0.75,0],[0.75,1,0],[0.5,1,0],[0.25,1,0],[0,0.75,0],[0,0.5,0],[0,0.25,0]];verticalLabelPosition=bottom;html=1;verticalAlign=top;aspect=fixed;align=center;pointerEvents=1;shape=mxgraph.cisco19.rect;prIcon=virtual_desktop_service;fillColor=#e1d5e7;strokeColor=#9673a6;hachureGap=4;jiggle=2;curveFitting=1;fontFamily=Lucida Console;fontSize=12;shadow=1;" parent="J9PmI4q2A3fcAl0dy6nj-78" vertex="1">
          <mxGeometry x="171.5" y="46.5" width="47" height="36.72" as="geometry" />
        </mxCell>
        <mxCell id="J9PmI4q2A3fcAl0dy6nj-90" style="edgeStyle=orthogonalEdgeStyle;rounded=0;hachureGap=4;orthogonalLoop=1;jettySize=auto;html=1;exitX=1;exitY=0.5;exitDx=0;exitDy=0;entryX=0.25;entryY=0;entryDx=0;entryDy=0;fontFamily=Architects Daughter;fontSource=https%3A%2F%2Ffonts.googleapis.com%2Fcss%3Ffamily%3DArchitects%2BDaughter;fontSize=16;startArrow=classic;startFill=1;" parent="1" source="J9PmI4q2A3fcAl0dy6nj-81" target="J9PmI4q2A3fcAl0dy6nj-77" edge="1">
          <mxGeometry relative="1" as="geometry" />
        </mxCell>
        <mxCell id="J9PmI4q2A3fcAl0dy6nj-81" value="Main Zone (10.72.0.0/24)" style="swimlane;whiteSpace=wrap;html=1;hachureGap=4;fontFamily=Lucida Console;fontSize=20;fillColor=#d5e8d4;strokeColor=#82b366;glass=1;rounded=0;" parent="1" vertex="1">
          <mxGeometry x="910" y="210" width="610" height="390" as="geometry" />
        </mxCell>
        <mxCell id="J9PmI4q2A3fcAl0dy6nj-15" value="VDI CONNECTOR&lt;br style=&quot;font-size: 12px;&quot;&gt;10.72.0.16&lt;br&gt;1 CPU&lt;br&gt;1GB RAM&lt;br&gt;32GB HDD&lt;br&gt;Ubuntu 22.04" style="sketch=0;points=[[0,0,0],[0.25,0,0],[0.5,0,0],[0.75,0,0],[1,0,0],[0,1,0],[0.25,1,0],[0.5,1,0],[0.75,1,0],[1,1,0],[0,0.25,0],[0,0.5,0],[0,0.75,0],[1,0.25,0],[1,0.5,0],[1,0.75,0]];outlineConnect=0;gradientDirection=north;fillColor=#d5e8d4;strokeColor=#82b366;dashed=0;verticalLabelPosition=bottom;verticalAlign=top;align=center;html=1;fontSize=12;fontStyle=0;aspect=fixed;shape=mxgraph.aws4.resourceIcon;resIcon=mxgraph.aws4.workspaces;hachureGap=4;jiggle=2;curveFitting=1;fontFamily=Lucida Console;" parent="J9PmI4q2A3fcAl0dy6nj-81" vertex="1">
          <mxGeometry x="50" y="38.710000000000036" width="47" height="47" as="geometry" />
        </mxCell>
        <mxCell id="J9PmI4q2A3fcAl0dy6nj-16" value="SUPPORT SERVER&lt;br style=&quot;font-size: 12px;&quot;&gt;10.72.0.11&lt;br&gt;4 CPU&lt;br&gt;4GB RAM&lt;br&gt;72GB HDD&lt;br&gt;Ubuntu 22.04" style="sketch=0;points=[[0,0,0],[0.25,0,0],[0.5,0,0],[0.75,0,0],[1,0,0],[0,1,0],[0.25,1,0],[0.5,1,0],[0.75,1,0],[1,1,0],[0,0.25,0],[0,0.5,0],[0,0.75,0],[1,0.25,0],[1,0.5,0],[1,0.75,0]];outlineConnect=0;gradientDirection=north;fillColor=#d5e8d4;strokeColor=#82b366;dashed=0;verticalLabelPosition=bottom;verticalAlign=top;align=center;html=1;fontSize=12;fontStyle=0;aspect=fixed;shape=mxgraph.aws4.resourceIcon;resIcon=mxgraph.aws4.ec2;hachureGap=4;jiggle=2;curveFitting=1;fontFamily=Lucida Console;" parent="J9PmI4q2A3fcAl0dy6nj-81" vertex="1">
          <mxGeometry x="180" y="38.710000000000036" width="47" height="47" as="geometry" />
        </mxCell>
        <mxCell id="J9PmI4q2A3fcAl0dy6nj-18" value="CTF GAME&lt;br&gt;10.72.0.12&lt;br&gt;2 CPU&lt;br&gt;4GB RAM&lt;br&gt;72GB HDD&lt;br&gt;Ubuntu 22.04&lt;br style=&quot;font-size: 12px;&quot;&gt;" style="sketch=0;points=[[0,0,0],[0.25,0,0],[0.5,0,0],[0.75,0,0],[1,0,0],[0,1,0],[0.25,1,0],[0.5,1,0],[0.75,1,0],[1,1,0],[0,0.25,0],[0,0.5,0],[0,0.75,0],[1,0.25,0],[1,0.5,0],[1,0.75,0]];outlineConnect=0;gradientDirection=north;fillColor=#d5e8d4;strokeColor=#82b366;dashed=0;verticalLabelPosition=bottom;verticalAlign=top;align=center;html=1;fontSize=12;fontStyle=0;aspect=fixed;shape=mxgraph.aws4.resourceIcon;resIcon=mxgraph.aws4.gamelift;hachureGap=4;jiggle=2;curveFitting=1;fontFamily=Lucida Console;" parent="J9PmI4q2A3fcAl0dy6nj-81" vertex="1">
          <mxGeometry x="300" y="38.710000000000036" width="47" height="47" as="geometry" />
        </mxCell>
        <mxCell id="J9PmI4q2A3fcAl0dy6nj-19" value="NEXTCLOUD&lt;br style=&quot;font-size: 12px;&quot;&gt;10.72.0.13&lt;br&gt;2 CPU&lt;br&gt;4GB RAM&lt;br&gt;128GB HDD&lt;br&gt;Ubuntu 22.04" style="sketch=0;outlineConnect=0;fillColor=#8FD999;strokeColor=#82b366;dashed=0;verticalLabelPosition=bottom;verticalAlign=top;align=center;html=1;fontSize=12;fontStyle=0;aspect=fixed;pointerEvents=1;shape=mxgraph.aws4.search_documents;hachureGap=4;jiggle=2;curveFitting=1;fontFamily=Lucida Console;" parent="J9PmI4q2A3fcAl0dy6nj-81" vertex="1">
          <mxGeometry x="410" y="38.710000000000036" width="40.98" height="47" as="geometry" />
        </mxCell>
        <mxCell id="J9PmI4q2A3fcAl0dy6nj-22" value="ROCKETCHAT&lt;br style=&quot;font-size: 12px;&quot;&gt;10.72.0.15&lt;br&gt;1 CPU&lt;br&gt;2GB RAM&lt;br&gt;72GB HDD&lt;br&gt;Ubuntu 22.04" style="sketch=0;outlineConnect=0;fillColor=#8FD999;strokeColor=#82b366;dashed=0;verticalLabelPosition=bottom;verticalAlign=top;align=center;html=1;fontSize=12;fontStyle=0;aspect=fixed;pointerEvents=1;shape=mxgraph.aws4.chat;hachureGap=4;jiggle=2;curveFitting=1;fontFamily=Lucida Console;shadow=1;" parent="J9PmI4q2A3fcAl0dy6nj-81" vertex="1">
          <mxGeometry x="50" y="210" width="47" height="40.97" as="geometry" />
        </mxCell>
        <mxCell id="J9PmI4q2A3fcAl0dy6nj-23" value="NGINXPROXYMGR&lt;br style=&quot;font-size: 12px;&quot;&gt;10.72.0.18&lt;br&gt;1 CPU&lt;br&gt;1GB RAM&lt;br&gt;32GB HDD&lt;br&gt;Ubuntu 22.04" style="sketch=0;points=[[0,0,0],[0.25,0,0],[0.5,0,0],[0.75,0,0],[1,0,0],[0,1,0],[0.25,1,0],[0.5,1,0],[0.75,1,0],[1,1,0],[0,0.25,0],[0,0.5,0],[0,0.75,0],[1,0.25,0],[1,0.5,0],[1,0.75,0]];outlineConnect=0;gradientDirection=north;fillColor=#d5e8d4;strokeColor=#82b366;dashed=0;verticalLabelPosition=bottom;verticalAlign=top;align=center;html=1;fontSize=12;fontStyle=0;aspect=fixed;shape=mxgraph.aws4.resourceIcon;resIcon=mxgraph.aws4.elastic_load_balancing;hachureGap=4;jiggle=2;curveFitting=1;fontFamily=Lucida Console;shadow=1;" parent="J9PmI4q2A3fcAl0dy6nj-81" vertex="1">
          <mxGeometry x="180" y="206.98000000000002" width="47" height="47" as="geometry" />
        </mxCell>
        <mxCell id="J9PmI4q2A3fcAl0dy6nj-27" value="MISP&lt;br style=&quot;font-size: 12px;&quot;&gt;10.72.0.17&lt;br&gt;1 CPU&lt;br&gt;2GB RAM&lt;br&gt;72GB HDD&lt;br&gt;Ubuntu 22.04" style="sketch=0;points=[[0,0,0],[0.25,0,0],[0.5,0,0],[0.75,0,0],[1,0,0],[0,1,0],[0.25,1,0],[0.5,1,0],[0.75,1,0],[1,1,0],[0,0.25,0],[0,0.5,0],[0,0.75,0],[1,0.25,0],[1,0.5,0],[1,0.75,0]];outlineConnect=0;gradientDirection=north;fillColor=#d5e8d4;strokeColor=#82b366;dashed=0;verticalLabelPosition=bottom;verticalAlign=top;align=center;html=1;fontSize=12;fontStyle=0;aspect=fixed;shape=mxgraph.aws4.resourceIcon;resIcon=mxgraph.aws4.thinkbox_sequoia;hachureGap=4;jiggle=2;curveFitting=1;fontFamily=Lucida Console;shadow=1;" parent="J9PmI4q2A3fcAl0dy6nj-81" vertex="1">
          <mxGeometry x="300" y="206.98000000000002" width="47" height="47" as="geometry" />
        </mxCell>
        <mxCell id="J9PmI4q2A3fcAl0dy6nj-10" value="LAB WORKSTATIONS&lt;br style=&quot;font-size: 12px;&quot;&gt;10.72.0.20-.39&lt;br&gt;Total 8 CPU&lt;br&gt;Total 8GB RAM&lt;br&gt;128GB HDD&lt;br&gt;Kali" style="sketch=0;points=[[0,0,0],[0.25,0,0],[0.5,0,0],[0.75,0,0],[1,0,0],[0,1,0],[0.25,1,0],[0.5,1,0],[0.75,1,0],[1,1,0],[0,0.25,0],[0,0.5,0],[0,0.75,0],[1,0.25,0],[1,0.5,0],[1,0.75,0]];outlineConnect=0;gradientDirection=north;fillColor=#d5e8d4;strokeColor=#82b366;dashed=0;verticalLabelPosition=bottom;verticalAlign=top;align=center;html=1;fontSize=12;fontStyle=0;aspect=fixed;shape=mxgraph.aws4.resourceIcon;resIcon=mxgraph.aws4.workspaces;hachureGap=4;jiggle=2;curveFitting=1;fontFamily=Lucida Console;shadow=1;" parent="J9PmI4q2A3fcAl0dy6nj-81" vertex="1">
          <mxGeometry x="406.99" y="206.98000000000002" width="47" height="47" as="geometry" />
        </mxCell>
        <mxCell id="J9PmI4q2A3fcAl0dy6nj-99" value="MINIO&lt;br style=&quot;font-size: 12px;&quot;&gt;10.72.0.14&lt;br&gt;2 CPU&lt;br&gt;4GB RAM&lt;br&gt;128GB HDD&lt;br&gt;Ubuntu 22.04" style="sketch=0;points=[[0,0,0],[0.25,0,0],[0.5,0,0],[0.75,0,0],[1,0,0],[0,1,0],[0.25,1,0],[0.5,1,0],[0.75,1,0],[1,1,0],[0,0.25,0],[0,0.5,0],[0,0.75,0],[1,0.25,0],[1,0.5,0],[1,0.75,0]];outlineConnect=0;gradientDirection=north;fillColor=#d5e8d4;strokeColor=#82b366;dashed=0;verticalLabelPosition=bottom;verticalAlign=top;align=center;html=1;fontSize=12;fontStyle=0;aspect=fixed;shape=mxgraph.aws4.resourceIcon;resIcon=mxgraph.aws4.s3;hachureGap=4;jiggle=2;curveFitting=1;fontFamily=Lucida Console;shadow=1;" parent="J9PmI4q2A3fcAl0dy6nj-81" vertex="1">
          <mxGeometry x="510" y="38.71000000000003" width="47" height="47" as="geometry" />
        </mxCell>
        <mxCell id="J9PmI4q2A3fcAl0dy6nj-100" value="NEXTCLOUD&lt;br style=&quot;font-size: 12px;&quot;&gt;10.72.0.13&lt;br&gt;2 CPU&lt;br&gt;4GB RAM&lt;br&gt;128GB HDD&lt;br&gt;Ubuntu 22.04" style="sketch=0;outlineConnect=0;fillColor=#8FD999;strokeColor=#82b366;dashed=0;verticalLabelPosition=bottom;verticalAlign=top;align=center;html=1;fontSize=12;fontStyle=0;aspect=fixed;pointerEvents=1;shape=mxgraph.aws4.search_documents;hachureGap=4;jiggle=2;curveFitting=1;fontFamily=Lucida Console;shadow=1;" parent="J9PmI4q2A3fcAl0dy6nj-81" vertex="1">
          <mxGeometry x="410" y="38.710000000000036" width="40.98" height="47" as="geometry" />
        </mxCell>
        <mxCell id="J9PmI4q2A3fcAl0dy6nj-101" value="CTF GAME&lt;br&gt;10.72.0.12&lt;br&gt;2 CPU&lt;br&gt;4GB RAM&lt;br&gt;72GB HDD&lt;br&gt;Ubuntu 22.04&lt;br style=&quot;font-size: 12px;&quot;&gt;" style="sketch=0;points=[[0,0,0],[0.25,0,0],[0.5,0,0],[0.75,0,0],[1,0,0],[0,1,0],[0.25,1,0],[0.5,1,0],[0.75,1,0],[1,1,0],[0,0.25,0],[0,0.5,0],[0,0.75,0],[1,0.25,0],[1,0.5,0],[1,0.75,0]];outlineConnect=0;gradientDirection=north;fillColor=#d5e8d4;strokeColor=#82b366;dashed=0;verticalLabelPosition=bottom;verticalAlign=top;align=center;html=1;fontSize=12;fontStyle=0;aspect=fixed;shape=mxgraph.aws4.resourceIcon;resIcon=mxgraph.aws4.gamelift;hachureGap=4;jiggle=2;curveFitting=1;fontFamily=Lucida Console;shadow=1;" parent="J9PmI4q2A3fcAl0dy6nj-81" vertex="1">
          <mxGeometry x="300" y="38.710000000000036" width="47" height="47" as="geometry" />
        </mxCell>
        <mxCell id="J9PmI4q2A3fcAl0dy6nj-102" value="SUPPORT SERVER&lt;br style=&quot;font-size: 12px;&quot;&gt;10.72.0.11&lt;br&gt;4 CPU&lt;br&gt;4GB RAM&lt;br&gt;72GB HDD&lt;br&gt;Ubuntu 22.04" style="sketch=0;points=[[0,0,0],[0.25,0,0],[0.5,0,0],[0.75,0,0],[1,0,0],[0,1,0],[0.25,1,0],[0.5,1,0],[0.75,1,0],[1,1,0],[0,0.25,0],[0,0.5,0],[0,0.75,0],[1,0.25,0],[1,0.5,0],[1,0.75,0]];outlineConnect=0;gradientDirection=north;fillColor=#d5e8d4;strokeColor=#82b366;dashed=0;verticalLabelPosition=bottom;verticalAlign=top;align=center;html=1;fontSize=12;fontStyle=0;aspect=fixed;shape=mxgraph.aws4.resourceIcon;resIcon=mxgraph.aws4.ec2;hachureGap=4;jiggle=2;curveFitting=1;fontFamily=Lucida Console;shadow=1;" parent="J9PmI4q2A3fcAl0dy6nj-81" vertex="1">
          <mxGeometry x="180" y="38.710000000000036" width="47" height="47" as="geometry" />
        </mxCell>
        <mxCell id="J9PmI4q2A3fcAl0dy6nj-87" style="edgeStyle=orthogonalEdgeStyle;rounded=0;hachureGap=4;orthogonalLoop=1;jettySize=auto;html=1;exitX=0.5;exitY=0;exitDx=0;exitDy=0;entryX=1;entryY=0.5;entryDx=0;entryDy=0;fontFamily=Architects Daughter;fontSource=https%3A%2F%2Ffonts.googleapis.com%2Fcss%3Ffamily%3DArchitects%2BDaughter;fontSize=16;startArrow=classic;startFill=1;" parent="1" source="J9PmI4q2A3fcAl0dy6nj-82" target="J9PmI4q2A3fcAl0dy6nj-77" edge="1">
          <mxGeometry relative="1" as="geometry" />
        </mxCell>
        <mxCell id="J9PmI4q2A3fcAl0dy6nj-82" value="Blue Zone (10.74.0.0/24)" style="swimlane;whiteSpace=wrap;html=1;hachureGap=4;fontFamily=Lucida Console;fontSize=20;fillColor=#dae8fc;strokeColor=#6c8ebf;glass=1;" parent="1" vertex="1">
          <mxGeometry x="1930" y="967" width="386.0100000000002" height="200" as="geometry" />
        </mxCell>
        <mxCell id="J9PmI4q2A3fcAl0dy6nj-45" value="WAZUH&lt;br style=&quot;font-size: 12px;&quot;&gt;10.74.0.10&lt;br&gt;2 CPU&lt;br&gt;2GB RAM&lt;br&gt;72GB HDD&lt;br&gt;Ubuntu 22.04" style="verticalLabelPosition=bottom;sketch=0;html=1;fillColor=#dae8fc;strokeColor=#6c8ebf;verticalAlign=top;align=center;points=[[0,0.5,0],[0.125,0.25,0],[0.25,0,0],[0.5,0,0],[0.75,0,0],[0.875,0.25,0],[1,0.5,0],[0.875,0.75,0],[0.75,1,0],[0.5,1,0],[0.125,0.75,0]];pointerEvents=1;shape=mxgraph.cisco_safe.compositeIcon;bgIcon=mxgraph.cisco_safe.design.blank_device;resIcon=mxgraph.cisco_safe.design.siem;hachureGap=4;jiggle=2;curveFitting=1;fontFamily=Lucida Console;fontSize=12;shadow=1;" parent="J9PmI4q2A3fcAl0dy6nj-82" vertex="1">
          <mxGeometry x="30" y="41.789999999999964" width="50" height="45" as="geometry" />
        </mxCell>
        <mxCell id="J9PmI4q2A3fcAl0dy6nj-48" value="WEF/ATA&lt;br style=&quot;font-size: 12px;&quot;&gt;10.74.0.11&lt;br&gt;2 CPU&lt;br&gt;4GB RAM&lt;br&gt;72GB HDD&lt;br&gt;Windows 2016" style="verticalLabelPosition=bottom;sketch=0;html=1;fillColor=#dae8fc;strokeColor=#6c8ebf;verticalAlign=top;align=center;points=[[0,0.5,0],[0.125,0.25,0],[0.25,0,0],[0.5,0,0],[0.75,0,0],[0.875,0.25,0],[1,0.5,0],[0.875,0.75,0],[0.75,1,0],[0.5,1,0],[0.125,0.75,0]];pointerEvents=1;shape=mxgraph.cisco_safe.compositeIcon;bgIcon=mxgraph.cisco_safe.design.blank_device;resIcon=mxgraph.cisco_safe.design.siem;hachureGap=4;jiggle=2;curveFitting=1;fontFamily=Lucida Console;fontSize=12;shadow=1;" parent="J9PmI4q2A3fcAl0dy6nj-82" vertex="1">
          <mxGeometry x="168.01" y="41.789999999999964" width="50" height="45" as="geometry" />
        </mxCell>
        <mxCell id="J9PmI4q2A3fcAl0dy6nj-49" value="ELKSTACK SIEM&lt;br style=&quot;font-size: 12px;&quot;&gt;10.74.0.12&lt;br&gt;2 CPU&lt;br&gt;4GB RAM&lt;br&gt;72GB HDD&lt;br&gt;Ubuntu 22.04" style="verticalLabelPosition=bottom;sketch=0;html=1;fillColor=#dae8fc;strokeColor=#6c8ebf;verticalAlign=top;align=center;points=[[0,0.5,0],[0.125,0.25,0],[0.25,0,0],[0.5,0,0],[0.75,0,0],[0.875,0.25,0],[1,0.5,0],[0.875,0.75,0],[0.75,1,0],[0.5,1,0],[0.125,0.75,0]];pointerEvents=1;shape=mxgraph.cisco_safe.compositeIcon;bgIcon=mxgraph.cisco_safe.design.blank_device;resIcon=mxgraph.cisco_safe.design.siem;hachureGap=4;jiggle=2;curveFitting=1;fontFamily=Lucida Console;fontSize=12;shadow=1;" parent="J9PmI4q2A3fcAl0dy6nj-82" vertex="1">
          <mxGeometry x="300.0000000000002" y="41.789999999999964" width="50" height="45" as="geometry" />
        </mxCell>
        <mxCell id="J9PmI4q2A3fcAl0dy6nj-86" style="edgeStyle=orthogonalEdgeStyle;rounded=0;hachureGap=4;orthogonalLoop=1;jettySize=auto;html=1;exitX=0.5;exitY=0;exitDx=0;exitDy=0;entryX=0;entryY=0.5;entryDx=0;entryDy=0;fontFamily=Architects Daughter;fontSource=https%3A%2F%2Ffonts.googleapis.com%2Fcss%3Ffamily%3DArchitects%2BDaughter;fontSize=16;startArrow=classic;startFill=1;" parent="1" source="J9PmI4q2A3fcAl0dy6nj-83" target="J9PmI4q2A3fcAl0dy6nj-77" edge="1">
          <mxGeometry relative="1" as="geometry" />
        </mxCell>
        <mxCell id="J9PmI4q2A3fcAl0dy6nj-83" value="Target Zone (10.73.0.0/24)" style="swimlane;whiteSpace=wrap;html=1;hachureGap=4;fontFamily=Lucida Console;fontSize=20;fillColor=#f8cecc;strokeColor=#b85450;glass=1;" parent="1" vertex="1">
          <mxGeometry x="910" y="970" width="590" height="710" as="geometry" />
        </mxCell>
        <mxCell id="J9PmI4q2A3fcAl0dy6nj-34" value="" style="sketch=0;outlineConnect=0;fontColor=#232F3E;gradientColor=none;fillColor=#3F8624;strokeColor=none;dashed=0;verticalLabelPosition=bottom;verticalAlign=top;align=center;html=1;fontSize=12;fontStyle=0;aspect=fixed;pointerEvents=1;shape=mxgraph.aws4.iot_thing_plc;hachureGap=4;jiggle=2;curveFitting=1;fontFamily=Lucida Console;" parent="J9PmI4q2A3fcAl0dy6nj-83" vertex="1">
          <mxGeometry x="32.5" y="34.289999999999964" width="47" height="47" as="geometry" />
        </mxCell>
        <mxCell id="J9PmI4q2A3fcAl0dy6nj-37" value="" style="sketch=0;outlineConnect=0;fontColor=#232F3E;gradientColor=none;fillColor=#D45B07;strokeColor=none;dashed=0;verticalLabelPosition=bottom;verticalAlign=top;align=center;html=1;fontSize=12;fontStyle=0;aspect=fixed;pointerEvents=1;shape=mxgraph.aws4.braket_simulator_1;hachureGap=4;jiggle=2;curveFitting=1;fontFamily=Lucida Console;" parent="J9PmI4q2A3fcAl0dy6nj-83" vertex="1">
          <mxGeometry x="32.5" y="204.28999999999996" width="47" height="47" as="geometry" />
        </mxCell>
        <mxCell id="J9PmI4q2A3fcAl0dy6nj-43" value="TARGET WIN7&lt;br&gt;10.73.0.23&lt;br&gt;2 CPU&lt;br&gt;2GB RAM&lt;br&gt;72GB HDD&lt;br&gt;Win7" style="sketch=0;points=[[0,0,0],[0.25,0,0],[0.5,0,0],[0.75,0,0],[1,0,0],[0,1,0],[0.25,1,0],[0.5,1,0],[0.75,1,0],[1,1,0],[0,0.25,0],[0,0.5,0],[0,0.75,0],[1,0.25,0],[1,0.5,0],[1,0.75,0]];outlineConnect=0;gradientDirection=north;fillColor=#f8cecc;strokeColor=#b85450;dashed=0;verticalLabelPosition=bottom;verticalAlign=top;align=center;html=1;fontSize=12;fontStyle=0;aspect=fixed;shape=mxgraph.aws4.resourceIcon;resIcon=mxgraph.aws4.ec2;hachureGap=4;jiggle=2;curveFitting=1;fontFamily=Lucida Console;shadow=1;" parent="J9PmI4q2A3fcAl0dy6nj-83" vertex="1">
          <mxGeometry x="32.5" y="360" width="47" height="47" as="geometry" />
        </mxCell>
        <mxCell id="J9PmI4q2A3fcAl0dy6nj-55" value="OPENPLC (WKS)&lt;br&gt;10.73.0.30&lt;br&gt;1 CPU&lt;br&gt;1GB RAM&lt;br&gt;72GB HDD&lt;br&gt;CrunchBang++" style="sketch=0;outlineConnect=0;fillColor=#B85450;strokeColor=#b85450;dashed=0;verticalLabelPosition=bottom;verticalAlign=top;align=center;html=1;fontSize=12;fontStyle=0;aspect=fixed;pointerEvents=1;shape=mxgraph.aws4.iot_thing_plc;hachureGap=4;jiggle=2;curveFitting=1;fontFamily=Lucida Console;" parent="J9PmI4q2A3fcAl0dy6nj-83" vertex="1">
          <mxGeometry x="32.5" y="34.289999999999964" width="47" height="47" as="geometry" />
        </mxCell>
        <mxCell id="J9PmI4q2A3fcAl0dy6nj-56" value="OPENPLC (PLC)&lt;br&gt;10.73.0.31&lt;br&gt;1 CPU&lt;br&gt;1GB RAM&lt;br&gt;72GB HDD&lt;br&gt;Ubuntu 22.04" style="sketch=0;outlineConnect=0;fillColor=#B85450;strokeColor=#b85450;dashed=0;verticalLabelPosition=bottom;verticalAlign=top;align=center;html=1;fontSize=12;fontStyle=0;aspect=fixed;pointerEvents=1;shape=mxgraph.aws4.iot_thing_plc;hachureGap=4;jiggle=2;curveFitting=1;fontFamily=Lucida Console;" parent="J9PmI4q2A3fcAl0dy6nj-83" vertex="1">
          <mxGeometry x="148.5" y="34.289999999999964" width="47" height="47" as="geometry" />
        </mxCell>
        <mxCell id="J9PmI4q2A3fcAl0dy6nj-59" value="FACTORYIO&lt;br&gt;10.73.0.34&lt;br&gt;2 CPU&lt;br&gt;4GB RAM&lt;br&gt;72GB HDD&lt;br&gt;Win10" style="sketch=0;outlineConnect=0;fillColor=#B85450;strokeColor=#b85450;dashed=0;verticalLabelPosition=bottom;verticalAlign=top;align=center;html=1;fontSize=12;fontStyle=0;aspect=fixed;pointerEvents=1;shape=mxgraph.aws4.braket_simulator_2;hachureGap=4;jiggle=2;curveFitting=1;fontFamily=Lucida Console;shadow=1;" parent="J9PmI4q2A3fcAl0dy6nj-83" vertex="1">
          <mxGeometry x="477" y="34.289999999999964" width="47" height="47" as="geometry" />
        </mxCell>
        <mxCell id="J9PmI4q2A3fcAl0dy6nj-60" value="CUCKOO NODES&lt;br&gt;10.73.0.40-.59&lt;br&gt;Total 8 CPU&lt;br&gt;Total 12GB RAM&lt;br&gt;128GB HDD&lt;br&gt;Various" style="sketch=0;outlineConnect=0;fillColor=#B85450;strokeColor=#b85450;dashed=0;verticalLabelPosition=bottom;verticalAlign=top;align=center;html=1;fontSize=12;fontStyle=0;aspect=fixed;pointerEvents=1;shape=mxgraph.aws4.braket_simulator_1;hachureGap=4;jiggle=2;curveFitting=1;fontFamily=Lucida Console;" parent="J9PmI4q2A3fcAl0dy6nj-83" vertex="1">
          <mxGeometry x="32.5" y="204.28999999999996" width="47" height="47" as="geometry" />
        </mxCell>
        <mxCell id="J9PmI4q2A3fcAl0dy6nj-61" value="VULNVMS&lt;br&gt;10.73.0.60-.79&lt;br&gt;Total 8 CPU&lt;br&gt;Total 12GB RAM&lt;br&gt;128GB HDD&lt;br&gt;Various" style="sketch=0;points=[[0,0,0],[0.25,0,0],[0.5,0,0],[0.75,0,0],[1,0,0],[0,1,0],[0.25,1,0],[0.5,1,0],[0.75,1,0],[1,1,0],[0,0.25,0],[0,0.5,0],[0,0.75,0],[1,0.25,0],[1,0.5,0],[1,0.75,0]];points=[[0,0,0],[0.25,0,0],[0.5,0,0],[0.75,0,0],[1,0,0],[0,1,0],[0.25,1,0],[0.5,1,0],[0.75,1,0],[1,1,0],[0,0.25,0],[0,0.5,0],[0,0.75,0],[1,0.25,0],[1,0.5,0],[1,0.75,0]];outlineConnect=0;gradientDirection=north;fillColor=#f8cecc;strokeColor=#b85450;dashed=0;verticalLabelPosition=bottom;verticalAlign=top;align=center;html=1;fontSize=12;fontStyle=0;aspect=fixed;shape=mxgraph.aws4.resourceIcon;resIcon=mxgraph.aws4.fault_injection_simulator;hachureGap=4;jiggle=2;curveFitting=1;fontFamily=Lucida Console;" parent="J9PmI4q2A3fcAl0dy6nj-83" vertex="1">
          <mxGeometry x="149.5" y="204.28999999999996" width="47" height="47" as="geometry" />
        </mxCell>
        <mxCell id="J9PmI4q2A3fcAl0dy6nj-62" value="METASPLOITABLE&lt;br&gt;10.73.0.20&lt;br&gt;1 CPU&lt;br&gt;4 GB RAM&lt;br&gt;72GB HDD&lt;br&gt;Ubuntu 22.04" style="sketch=0;points=[[0,0,0],[0.25,0,0],[0.5,0,0],[0.75,0,0],[1,0,0],[0,1,0],[0.25,1,0],[0.5,1,0],[0.75,1,0],[1,1,0],[0,0.25,0],[0,0.5,0],[0,0.75,0],[1,0.25,0],[1,0.5,0],[1,0.75,0]];points=[[0,0,0],[0.25,0,0],[0.5,0,0],[0.75,0,0],[1,0,0],[0,1,0],[0.25,1,0],[0.5,1,0],[0.75,1,0],[1,1,0],[0,0.25,0],[0,0.5,0],[0,0.75,0],[1,0.25,0],[1,0.5,0],[1,0.75,0]];outlineConnect=0;gradientDirection=north;fillColor=#f8cecc;strokeColor=#b85450;dashed=0;verticalLabelPosition=bottom;verticalAlign=top;align=center;html=1;fontSize=12;fontStyle=0;aspect=fixed;shape=mxgraph.aws4.resourceIcon;resIcon=mxgraph.aws4.fault_injection_simulator;hachureGap=4;jiggle=2;curveFitting=1;fontFamily=Lucida Console;shadow=1;" parent="J9PmI4q2A3fcAl0dy6nj-83" vertex="1">
          <mxGeometry x="267" y="204.28999999999996" width="47" height="47" as="geometry" />
        </mxCell>
        <mxCell id="J9PmI4q2A3fcAl0dy6nj-63" value="JUICESHOP&lt;br&gt;10.73.0.21&lt;br&gt;2 CPU&lt;br&gt;1GB RAM&lt;br&gt;72GB HDD&lt;br&gt;Ubuntu 22.04" style="sketch=0;points=[[0,0,0],[0.25,0,0],[0.5,0,0],[0.75,0,0],[1,0,0],[0,1,0],[0.25,1,0],[0.5,1,0],[0.75,1,0],[1,1,0],[0,0.25,0],[0,0.5,0],[0,0.75,0],[1,0.25,0],[1,0.5,0],[1,0.75,0]];points=[[0,0,0],[0.25,0,0],[0.5,0,0],[0.75,0,0],[1,0,0],[0,1,0],[0.25,1,0],[0.5,1,0],[0.75,1,0],[1,1,0],[0,0.25,0],[0,0.5,0],[0,0.75,0],[1,0.25,0],[1,0.5,0],[1,0.75,0]];outlineConnect=0;gradientDirection=north;fillColor=#f8cecc;strokeColor=#b85450;dashed=0;verticalLabelPosition=bottom;verticalAlign=top;align=center;html=1;fontSize=12;fontStyle=0;aspect=fixed;shape=mxgraph.aws4.resourceIcon;resIcon=mxgraph.aws4.fault_injection_simulator;hachureGap=4;jiggle=2;curveFitting=1;fontFamily=Lucida Console;shadow=1;" parent="J9PmI4q2A3fcAl0dy6nj-83" vertex="1">
          <mxGeometry x="369" y="204.28999999999996" width="47" height="47" as="geometry" />
        </mxCell>
        <mxCell id="J9PmI4q2A3fcAl0dy6nj-64" value="TARGET WINXP&lt;br&gt;10.73.0.22&lt;br&gt;1 CPU&lt;br&gt;1GB RAM&lt;br&gt;72GB HDD&lt;br&gt;WinXP" style="sketch=0;points=[[0,0,0],[0.25,0,0],[0.5,0,0],[0.75,0,0],[1,0,0],[0,1,0],[0.25,1,0],[0.5,1,0],[0.75,1,0],[1,1,0],[0,0.25,0],[0,0.5,0],[0,0.75,0],[1,0.25,0],[1,0.5,0],[1,0.75,0]];outlineConnect=0;gradientDirection=north;fillColor=#f8cecc;strokeColor=#b85450;dashed=0;verticalLabelPosition=bottom;verticalAlign=top;align=center;html=1;fontSize=12;fontStyle=0;aspect=fixed;shape=mxgraph.aws4.resourceIcon;resIcon=mxgraph.aws4.ec2;hachureGap=4;jiggle=2;curveFitting=1;fontFamily=Lucida Console;shadow=1;" parent="J9PmI4q2A3fcAl0dy6nj-83" vertex="1">
          <mxGeometry x="477" y="204.28999999999996" width="47" height="47" as="geometry" />
        </mxCell>
        <mxCell id="J9PmI4q2A3fcAl0dy6nj-65" value="TARGET WIN10&lt;br&gt;10.137.0.24&lt;br&gt;2 CPU&lt;br&gt;4GB RAM&lt;br&gt;72GB HDD&lt;br&gt;Win10" style="sketch=0;points=[[0,0,0],[0.25,0,0],[0.5,0,0],[0.75,0,0],[1,0,0],[0,1,0],[0.25,1,0],[0.5,1,0],[0.75,1,0],[1,1,0],[0,0.25,0],[0,0.5,0],[0,0.75,0],[1,0.25,0],[1,0.5,0],[1,0.75,0]];outlineConnect=0;gradientDirection=north;fillColor=#f8cecc;strokeColor=#b85450;dashed=0;verticalLabelPosition=bottom;verticalAlign=top;align=center;html=1;fontSize=12;fontStyle=0;aspect=fixed;shape=mxgraph.aws4.resourceIcon;resIcon=mxgraph.aws4.ec2;hachureGap=4;jiggle=2;curveFitting=1;fontFamily=Lucida Console;shadow=1;" parent="J9PmI4q2A3fcAl0dy6nj-83" vertex="1">
          <mxGeometry x="148.5" y="360" width="47" height="47" as="geometry" />
        </mxCell>
        <mxCell id="J9PmI4q2A3fcAl0dy6nj-66" value="TARGET WINDC&lt;br&gt;10.73.0.25&lt;br&gt;2 CPU&lt;br&gt;2GB RAM&lt;br&gt;72GB HDD&lt;br&gt;Windows 2016" style="sketch=0;points=[[0,0,0],[0.25,0,0],[0.5,0,0],[0.75,0,0],[1,0,0],[0,1,0],[0.25,1,0],[0.5,1,0],[0.75,1,0],[1,1,0],[0,0.25,0],[0,0.5,0],[0,0.75,0],[1,0.25,0],[1,0.5,0],[1,0.75,0]];outlineConnect=0;gradientDirection=north;fillColor=#f8cecc;strokeColor=#b85450;dashed=0;verticalLabelPosition=bottom;verticalAlign=top;align=center;html=1;fontSize=12;fontStyle=0;aspect=fixed;shape=mxgraph.aws4.resourceIcon;resIcon=mxgraph.aws4.ec2;hachureGap=4;jiggle=2;curveFitting=1;fontFamily=Lucida Console;shadow=1;" parent="J9PmI4q2A3fcAl0dy6nj-83" vertex="1">
          <mxGeometry x="32.5" y="530" width="47" height="47" as="geometry" />
        </mxCell>
        <mxCell id="J9PmI4q2A3fcAl0dy6nj-93" value="OPENPLC (PLC)&lt;br&gt;10.73.0.31&lt;br&gt;1 CPU&lt;br&gt;1GB RAM&lt;br&gt;72GB HDD&lt;br&gt;Ubuntu 22.04" style="sketch=0;outlineConnect=0;fillColor=#B85450;strokeColor=#b85450;dashed=0;verticalLabelPosition=bottom;verticalAlign=top;align=center;html=1;fontSize=12;fontStyle=0;aspect=fixed;pointerEvents=1;shape=mxgraph.aws4.iot_thing_plc;hachureGap=4;jiggle=2;curveFitting=1;fontFamily=Lucida Console;shadow=1;" parent="J9PmI4q2A3fcAl0dy6nj-83" vertex="1">
          <mxGeometry x="148.5" y="34.289999999999964" width="47" height="47" as="geometry" />
        </mxCell>
        <mxCell id="J9PmI4q2A3fcAl0dy6nj-94" value="VULNVMS&lt;br&gt;10.73.0.60-.79&lt;br&gt;Total 8 CPU&lt;br&gt;Total 12GB RAM&lt;br&gt;128GB HDD&lt;br&gt;Various" style="sketch=0;points=[[0,0,0],[0.25,0,0],[0.5,0,0],[0.75,0,0],[1,0,0],[0,1,0],[0.25,1,0],[0.5,1,0],[0.75,1,0],[1,1,0],[0,0.25,0],[0,0.5,0],[0,0.75,0],[1,0.25,0],[1,0.5,0],[1,0.75,0]];points=[[0,0,0],[0.25,0,0],[0.5,0,0],[0.75,0,0],[1,0,0],[0,1,0],[0.25,1,0],[0.5,1,0],[0.75,1,0],[1,1,0],[0,0.25,0],[0,0.5,0],[0,0.75,0],[1,0.25,0],[1,0.5,0],[1,0.75,0]];outlineConnect=0;gradientDirection=north;fillColor=#f8cecc;strokeColor=#b85450;dashed=0;verticalLabelPosition=bottom;verticalAlign=top;align=center;html=1;fontSize=12;fontStyle=0;aspect=fixed;shape=mxgraph.aws4.resourceIcon;resIcon=mxgraph.aws4.fault_injection_simulator;hachureGap=4;jiggle=2;curveFitting=1;fontFamily=Lucida Console;shadow=1;" parent="J9PmI4q2A3fcAl0dy6nj-83" vertex="1">
          <mxGeometry x="149.5" y="204.28999999999996" width="47" height="47" as="geometry" />
        </mxCell>
        <mxCell id="J9PmI4q2A3fcAl0dy6nj-95" value="CUCKOO NODES&lt;br&gt;10.73.0.40-.59&lt;br&gt;Total 8 CPU&lt;br&gt;Total 12GB RAM&lt;br&gt;128GB HDD&lt;br&gt;Various" style="sketch=0;outlineConnect=0;fillColor=#B85450;strokeColor=#b85450;dashed=0;verticalLabelPosition=bottom;verticalAlign=top;align=center;html=1;fontSize=12;fontStyle=0;aspect=fixed;pointerEvents=1;shape=mxgraph.aws4.braket_simulator_1;hachureGap=4;jiggle=2;curveFitting=1;fontFamily=Lucida Console;shadow=1;" parent="J9PmI4q2A3fcAl0dy6nj-83" vertex="1">
          <mxGeometry x="32.5" y="204.28999999999996" width="47" height="47" as="geometry" />
        </mxCell>
        <mxCell id="J9PmI4q2A3fcAl0dy6nj-96" value="OPENPLC (WKS)&lt;br&gt;10.73.0.30&lt;br&gt;1 CPU&lt;br&gt;1GB RAM&lt;br&gt;72GB HDD&lt;br&gt;CrunchBang++" style="sketch=0;outlineConnect=0;fillColor=#B85450;strokeColor=#b85450;dashed=0;verticalLabelPosition=bottom;verticalAlign=top;align=center;html=1;fontSize=12;fontStyle=0;aspect=fixed;pointerEvents=1;shape=mxgraph.aws4.iot_thing_plc;hachureGap=4;jiggle=2;curveFitting=1;fontFamily=Lucida Console;shadow=1;" parent="J9PmI4q2A3fcAl0dy6nj-83" vertex="1">
          <mxGeometry x="32.5" y="34.289999999999964" width="47" height="47" as="geometry" />
        </mxCell>
        <mxCell id="J9PmI4q2A3fcAl0dy6nj-97" value="SCADA BR&lt;br&gt;10.73.0.32&lt;br&gt;1 CPU&lt;br&gt;2GB RAM&lt;br&gt;72GB HDD&lt;br&gt;Ubuntu 22.04" style="sketch=0;points=[[0,0,0],[0.25,0,0],[0.5,0,0],[0.75,0,0],[1,0,0],[0,1,0],[0.25,1,0],[0.5,1,0],[0.75,1,0],[1,1,0],[0,0.25,0],[0,0.5,0],[0,0.75,0],[1,0.25,0],[1,0.5,0],[1,0.75,0]];outlineConnect=0;gradientDirection=north;fillColor=#f8cecc;strokeColor=#b85450;dashed=0;verticalLabelPosition=bottom;verticalAlign=top;align=center;html=1;fontSize=12;fontStyle=0;aspect=fixed;shape=mxgraph.aws4.resourceIcon;resIcon=mxgraph.aws4.quicksight;hachureGap=4;jiggle=2;curveFitting=1;fontFamily=Lucida Console;shadow=1;" parent="J9PmI4q2A3fcAl0dy6nj-83" vertex="1">
          <mxGeometry x="267" y="34.289999999999964" width="47" height="47" as="geometry" />
        </mxCell>
        <mxCell id="J9PmI4q2A3fcAl0dy6nj-98" value="IGNITION&lt;br&gt;10.73.0.33&lt;br&gt;2 CPU&lt;br&gt;4GB RAM&lt;br&gt;72GB HDD&lt;br&gt;Ubuntu 22.04" style="sketch=0;points=[[0,0,0],[0.25,0,0],[0.5,0,0],[0.75,0,0],[1,0,0],[0,1,0],[0.25,1,0],[0.5,1,0],[0.75,1,0],[1,1,0],[0,0.25,0],[0,0.5,0],[0,0.75,0],[1,0.25,0],[1,0.5,0],[1,0.75,0]];outlineConnect=0;gradientDirection=north;fillColor=#f8cecc;strokeColor=#b85450;dashed=0;verticalLabelPosition=bottom;verticalAlign=top;align=center;html=1;fontSize=12;fontStyle=0;aspect=fixed;shape=mxgraph.aws4.resourceIcon;resIcon=mxgraph.aws4.quicksight;hachureGap=4;jiggle=2;curveFitting=1;fontFamily=Lucida Console;shadow=1;" parent="J9PmI4q2A3fcAl0dy6nj-83" vertex="1">
          <mxGeometry x="369" y="34.289999999999964" width="47" height="47" as="geometry" />
        </mxCell>
        <mxCell id="J9PmI4q2A3fcAl0dy6nj-70" value="&lt;font style=&quot;font-size: 12px;&quot;&gt;HPZ620&lt;br style=&quot;font-size: 12px;&quot;&gt;PROXMOX&lt;br style=&quot;font-size: 12px;&quot;&gt;10.137.0.5&lt;br&gt;32 CPU - E5-2690&lt;br&gt;128GB RAM&lt;br&gt;ProxMox&lt;br&gt;/local-lvm: 1.84TB&lt;br&gt;/data2: 1.97TB&lt;br style=&quot;font-size: 12px;&quot;&gt;&lt;/font&gt;" style="sketch=0;points=[[0.015,0.015,0],[0.985,0.015,0],[0.985,0.985,0],[0.015,0.985,0],[0.25,0,0],[0.5,0,0],[0.75,0,0],[1,0.25,0],[1,0.5,0],[1,0.75,0],[0.75,1,0],[0.5,1,0],[0.25,1,0],[0,0.75,0],[0,0.5,0],[0,0.25,0]];verticalLabelPosition=bottom;html=1;verticalAlign=top;aspect=fixed;align=center;pointerEvents=1;shape=mxgraph.cisco19.rect;prIcon=hypervisor;fillColor=#FAFAFA;strokeColor=#005073;hachureGap=4;jiggle=2;curveFitting=1;fontFamily=Lucida Console;fontSize=12;shadow=1;" parent="1" vertex="1">
          <mxGeometry x="2200" y="160" width="50" height="65" as="geometry" />
        </mxCell>
        <mxCell id="J9PmI4q2A3fcAl0dy6nj-85" style="edgeStyle=orthogonalEdgeStyle;rounded=0;hachureGap=4;orthogonalLoop=1;jettySize=auto;html=1;entryX=0.538;entryY=-0.003;entryDx=0;entryDy=0;entryPerimeter=0;fontFamily=Architects Daughter;fontSource=https%3A%2F%2Ffonts.googleapis.com%2Fcss%3Ffamily%3DArchitects%2BDaughter;fontSize=16;endArrow=classic;endFill=1;" parent="1" source="J9PmI4q2A3fcAl0dy6nj-67" target="J9PmI4q2A3fcAl0dy6nj-77" edge="1">
          <mxGeometry relative="1" as="geometry" />
        </mxCell>
        <mxCell id="v40437Wgriiua6ANo5ZM-1" value="192.168.40.0/24" style="edgeLabel;html=1;align=center;verticalAlign=middle;resizable=0;points=[];fontSize=20;fontFamily=Lucida Console;" parent="J9PmI4q2A3fcAl0dy6nj-85" vertex="1" connectable="0">
          <mxGeometry x="-0.5981" y="-1" relative="1" as="geometry">
            <mxPoint as="offset" />
          </mxGeometry>
        </mxCell>
        <mxCell id="v40437Wgriiua6ANo5ZM-2" value="" style="endArrow=none;dashed=1;html=1;dashPattern=1 3;strokeWidth=2;rounded=0;hachureGap=4;fontFamily=Architects Daughter;fontSource=https%3A%2F%2Ffonts.googleapis.com%2Fcss%3Ffamily%3DArchitects%2BDaughter;fontSize=16;fillColor=#f8cecc;strokeColor=#b85450;" parent="1" edge="1">
          <mxGeometry width="50" height="50" relative="1" as="geometry">
            <mxPoint x="915" y="1160" as="sourcePoint" />
            <mxPoint x="1495" y="1160" as="targetPoint" />
          </mxGeometry>
        </mxCell>
        <mxCell id="v40437Wgriiua6ANo5ZM-3" value="CUCKOO F/E&lt;br&gt;10.72.0.19&lt;br&gt;2 CPU&lt;br&gt;4GB RAM&lt;br&gt;72GB HDD&lt;br&gt;Ubuntu 22.04" style="sketch=0;outlineConnect=0;fillColor=#82B366;strokeColor=#82b366;dashed=0;verticalLabelPosition=bottom;verticalAlign=top;align=center;html=1;fontSize=12;fontStyle=0;aspect=fixed;pointerEvents=1;shape=mxgraph.aws4.braket_simulator_1;hachureGap=4;jiggle=2;curveFitting=1;fontFamily=Lucida Console;shadow=1;" parent="1" vertex="1">
          <mxGeometry x="1430" y="417" width="50" height="50" as="geometry" />
        </mxCell>
      </root>
    </mxGraphModel>
  </diagram>
</mxfile>
